<?xml version="1.0" encoding="UTF-8"?>
<svg width="654px" height="120px" viewBox="0 20 654 140" version="1.1" xmlns="http://www.w3.org/2000/svg" xmlns:xlink="http://www.w3.org/1999/xlink">
    <title>Frame</title>
    <defs>
        <linearGradient x1="11.6294834%" y1="2.2230746%" x2="79.2407886%" y2="100%" id="linearGradient-1">
            <stop stop-color="#00B7EB" offset="0%"></stop>
            <stop stop-color="#D2FAFF" offset="100%"></stop>
        </linearGradient>
    </defs>
    <g id="Frame" stroke="none" fill="none">
        <text id="Python-AI-SDK" font-family="SFCompact-Semibold, SF Compact" font-size="88" font-weight="500" letter-spacing="-3.4" fill="#000000">
            <tspan x="145" y="120">Python AI SDK</tspan>
        </text>
        <path d="M75.4445903,42.6092012 C77.232327,38.104138 84.6431652,38.104138 86.4309019,42.6092012 L100.551659,78.3267908 L136.267017,92.4484311 C138.519407,93.3384173 140,95.520065 140,97.9379922 C140,100.355919 138.511532,102.537567 136.259141,103.427553 L100.543784,117.549194 L86.4230264,153.266783 C85.5330958,155.519315 83.3515845,157 80.9338084,157 C78.5160323,157 76.3345209,155.519315 75.4445903,153.266783 L61.3238327,117.549194 L25.6084755,103.427553 C23.3482093,102.537567 21.8676167,100.355919 21.8676167,97.9379922 C21.8676167,95.520065 23.3560848,93.3384173 25.6084755,92.4484311 L61.3238327,78.3267908 Z M29.9557472,33.4100513 C31.0346897,30.1966496 36.3506469,30.1966496 37.4295893,33.4100513 L40.7451716,43.3574197 L50.6919182,46.6732092 C52.2985187,47.2087761 53.3853366,48.7130891 53.3853366,50.4064258 C53.3853366,52.0997625 52.2985187,53.6040755 50.6919182,54.1396425 L40.7451716,57.4554319 L37.4295893,67.4028004 C36.8861804,69.0095012 35.3819614,70.096387 33.6887305,70.096387 C31.9954997,70.096387 30.4834052,69.0095012 29.9478717,67.4028004 L26.640165,57.4554319 L16.6934183,54.1396425 C15.0868179,53.6040755 14,52.0997625 14,50.4064258 C14,48.7130891 15.0868179,47.2087761 16.6934183,46.6732092 L26.640165,43.3574197 Z" id="Combined-Shape" fill="url(#linearGradient-1)" fill-rule="nonzero"></path>
    </g>
</svg>